<svg class="heart" width="44px" height="44px" viewBox="0 0 16 14" version="1.1" xmlns="http://www.w3.org/2000/svg" xmlns:xlink="http://www.w3.org/1999/xlink">
  <!-- Generator: Sketch 49.1 (51147) - http://www.bohemiancoding.com/sketch -->
  <desc>Created with Sketch.</desc>
  <defs></defs>
  <g id="Page-1" stroke="none" stroke-width="1" fill="none" fill-rule="evenodd">
    <g id="c_new_ui" transform="translate(-331.000000, -1008.000000)" stroke="#000">
      <g id="Group-7" transform="translate(195.000000, 1000.000000)">
        <path d="M149.742855,10.0062112 C148.982088,9.30186335 148.112639,9 147.025829,9 C145.939018,9 144.852207,9.80496894 143.982759,10.6099379 C143.11331,9.80496894 142.026499,9 140.939689,9 C139.852878,9 138.983429,9.30186335 138.222662,10.0062112 C136.592446,11.515528 136.592446,13.8298137 138.222662,15.3391304 C138.657386,15.7416149 143.11331,20.2695652 143.11331,20.2695652 C143.330672,20.4708075 143.656715,20.5714286 143.982759,20.5714286 L143.982759,20.5714286 L143.982759,20.5714286 L143.982759,20.5714286 L143.982759,20.5714286 C144.308802,20.5714286 144.634845,20.4708075 144.852207,20.2695652 C144.852207,20.2695652 149.308131,15.7416149 149.742855,15.3391304 C151.373071,13.8298137 151.373071,11.515528 149.742855,10.0062112 Z"
          id="Shape"></path>
      </g>
    </g>
  </g>
</svg>